<?xml version="1.0" encoding="UTF-8"?>
<svg version="1.1" xmlns="http://www.w3.org/2000/svg" width="200" height="200">
<path d="M0 0 C1.98 0 3.96 0 6 0 C6 0.99 6 1.98 6 3 C6.6290625 3.18433594 7.258125 3.36867187 7.90625 3.55859375 C15.15950826 6.01639964 19.63723479 9.68739558 24 16 C24 16.66 24 17.32 24 18 C20.25 19.125 20.25 19.125 18 18 C18 19.98 18 21.96 18 24 C18.66 24 19.32 24 20 24 C20.67667998 25.24460783 21.34094719 26.49596896 22 27.75 C22.37125 28.44609375 22.7425 29.1421875 23.125 29.859375 C24 32 24 32 24 36 C24.66 36.33 25.32 36.66 26 37 C26 38.32 26 39.64 26 41 C25.34 41 24.68 41 24 41 C23.814375 41.928125 23.814375 41.928125 23.625 42.875 C23 45 23 45 21 47 C17.66126496 47.8922991 14.44876114 48.23280491 11 48 C7.875 45.75 7.875 45.75 6 43 C6 42.01 6 41.02 6 40 C5.67 39.01 5.34 38.02 5 37 C3.515 36.505 3.515 36.505 2 36 C2 35.34 2 34.68 2 34 C0.95199219 34.10828125 0.95199219 34.10828125 -0.1171875 34.21875 C-1.02726562 34.3115625 -1.93734375 34.404375 -2.875 34.5 C-4.23238281 34.63921875 -4.23238281 34.63921875 -5.6171875 34.78125 C-8 35 -8 35 -10 35 C-10.33 37.31 -10.66 39.62 -11 42 C-13.88137121 42.16949242 -15.85145976 42.05796692 -18.5625 41 C-31.83430608 37.13911096 -47.01192823 41.955693 -58.86328125 48.14453125 C-61 49 -61 49 -64 48 C-62.6875 44.5625 -62.6875 44.5625 -61 41 C-59.515 40.505 -59.515 40.505 -58 40 C-58.33 38.68 -58.66 37.36 -59 36 C-57.515 35.505 -57.515 35.505 -56 35 C-56.66 34.34 -57.32 33.68 -58 33 C-57.835 32.236875 -57.67 31.47375 -57.5 30.6875 C-56.89890036 27.45658945 -57.58758135 25.90792074 -59 23 C-59.33 23.99 -59.66 24.98 -60 26 C-60.33 25.34 -60.66 24.68 -61 24 C-61.99 24.33 -62.98 24.66 -64 25 C-65.65 23.35 -67.3 21.7 -69 20 C-67.25 18.4375 -67.25 18.4375 -65 17 C-62.875 17.4375 -62.875 17.4375 -61 18 C-60.34 17.34 -59.68 16.68 -59 16 C-59 14.68 -59 13.36 -59 12 C-54.25 11 -54.25 11 -52 11 C-51.236875 10.814375 -50.47375 10.62875 -49.6875 10.4375 C-46.80548978 9.96833554 -44.80645055 10.27834129 -42 11 C-41.731875 10.195625 -41.46375 9.39125 -41.1875 8.5625 C-40.795625 7.716875 -40.40375 6.87125 -40 6 C-31.38083627 3.12694542 -22.35880721 2.83601413 -13.34765625 3.16015625 C-10.72678629 3.17664552 -10.72678629 3.17664552 -8 1 C-5.4375 1.375 -5.4375 1.375 -3 2 C-2.34 2 -1.68 2 -1 2 C-0.67 1.34 -0.34 0.68 0 0 Z M-58 17 C-57.34 17.66 -56.68 18.32 -56 19 C-56 18.34 -56 17.68 -56 17 C-56.66 17 -57.32 17 -58 17 Z M-40 17 C-39 19 -39 19 -39 19 Z M-56 23 C-55.01 24.485 -55.01 24.485 -54 26 C-54 25.01 -54 24.02 -54 23 C-54.66 23 -55.32 23 -56 23 Z M-54 26 C-54 26.99 -54 27.98 -54 29 C-53.34 28.67 -52.68 28.34 -52 28 C-52 27.34 -52 26.68 -52 26 C-52.66 26 -53.32 26 -54 26 Z M-55 29 C-54 31 -54 31 -54 31 Z " fill="#0D3658" transform="translate(123,48)"/>
<path d="M0 0 C2.9375 0.375 2.9375 0.375 6 1 C6.99 1 7.98 1 9 1 C9 1.66 9 2.32 9 3 C8.01 3 7.02 3 6 3 C6.495 4.485 6.495 4.485 7 6 C6.01 6 5.02 6 4 6 C4 6.33 4 6.66 4 7 C3.67 7.99 3.34 8.98 3 10 C3 9.34 3 8.68 3 8 C2.01 8 1.02 8 0 8 C1.32 9.65 2.64 11.3 4 13 C1.69 12.34 -0.62 11.68 -3 11 C-2.34 11.4125 -1.68 11.825 -1 12.25 C-0.34 12.8275 0.32 13.405 1 14 C1 15.32 1 16.64 1 18 C-0.32 18 -1.64 18 -3 18 C-3 18.66 -3 19.32 -3 20 C-2.0925 19.87625 -1.185 19.7525 -0.25 19.625 C1.35875 19.810625 1.35875 19.810625 3 20 C5.375 23 5.375 23 7 26 C5.68 27.65 4.36 29.3 3 31 C3 28.66666667 3 26.33333333 3 24 C2.01 23.34 1.02 22.68 0 22 C0.495 26.455 0.495 26.455 1 31 C0.34 29.68 -0.32 28.36 -1 27 C-5.32001266 27.48000141 -7.27322191 28.61503409 -10 32 C-11.25436187 34.63222962 -11.25436187 34.63222962 -12 37 C-12.66 36.67 -13.32 36.34 -14 36 C-14 34.68 -14 33.36 -14 32 C-17.95199987 33.16763633 -20.7725527 34.46414855 -24 37 C-24.66 37 -25.32 37 -26 37 C-25.67 36.401875 -25.34 35.80375 -25 35.1875 C-23.79212012 32.94613529 -23.79212012 32.94613529 -24 30 C-24.78375 30.185625 -25.5675 30.37125 -26.375 30.5625 C-29 31 -29 31 -31 30 C-29.68 28.35 -28.36 26.7 -27 25 C-27.61875 25.680625 -27.61875 25.680625 -28.25 26.375 C-30.06408095 28.05950374 -31.75285627 28.99265971 -34 30 C-33.67 31.32 -33.34 32.64 -33 34 C-33.99 34.495 -33.99 34.495 -35 35 C-35 34.34 -35 33.68 -35 33 C-35.99 32.67 -36.98 32.34 -38 32 C-36.40909091 25.40909091 -36.40909091 25.40909091 -35 24 C-34.31731862 22.67479497 -33.6492959 21.34187818 -33 20 C-34.32 20 -35.64 20 -37 20 C-37 20.66 -37 21.32 -37 22 C-37.66 22 -38.32 22 -39 22 C-38.375 18.625 -38.375 18.625 -37 15 C-33.875 13.5625 -33.875 13.5625 -31 13 C-30.67 14.98 -30.34 16.96 -30 19 C-29.34 19 -28.68 19 -28 19 C-27.67 18.34 -27.34 17.68 -27 17 C-26.34 17.33 -25.68 17.66 -25 18 C-24.87882812 17.37351562 -24.75765625 16.74703125 -24.6328125 16.1015625 C-24.46523437 15.28429687 -24.29765625 14.46703125 -24.125 13.625 C-23.96257812 12.81289063 -23.80015625 12.00078125 -23.6328125 11.1640625 C-23 9 -23 9 -21 7 C-21.66 6.67 -22.32 6.34 -23 6 C-23 5.34 -23 4.68 -23 4 C-16.62717368 2.45172115 -10.80990619 1.82682245 -4.25 2.125 C-1.79489521 2.23942511 -1.79489521 2.23942511 0 0 Z M-2 21 C-1 23 -1 23 -1 23 Z " fill="#0F3758" transform="translate(114,49)"/>
<path d="M0 0 C1.32 0 2.64 0 4 0 C4 0.99 4 1.98 4 3 C4.99 3.33 5.98 3.66 7 4 C6.67 4.66 6.34 5.32 6 6 C5.34 6 4.68 6 4 6 C4.04125 6.7425 4.0825 7.485 4.125 8.25 C3.98964925 11.22771642 3.79844343 12.62932457 2 15 C-1.125 16.25 -1.125 16.25 -4 17 C-4 14.69 -4 12.38 -4 10 C-4.33 10.66 -4.66 11.32 -5 12 C-6.9375 12.5625 -6.9375 12.5625 -9 13 C-9.99 13.495 -9.99 13.495 -11 14 C-11.65555119 16.52733235 -11.65555119 16.52733235 -12 19 C-11.01 18.34 -10.02 17.68 -9 17 C-8.01 17 -7.02 17 -6 17 C-6 21 -6 21 -7 23 C-7.66 22.67 -8.32 22.34 -9 22 C-8.67 22.99 -8.34 23.98 -8 25 C-8.66 25.33 -9.32 25.66 -10 26 C-10 26.99 -10 27.98 -10 29 C-9.01 29.66 -8.02 30.32 -7 31 C-7.226875 30.401875 -7.45375 29.80375 -7.6875 29.1875 C-8 27 -8 27 -6.875 25.375 C-4.6950426 23.77636457 -2.54269889 22.89338069 0 22 C-0.33 22.639375 -0.66 23.27875 -1 23.9375 C-2.07271225 25.76794567 -2.07271225 25.76794567 -2 27 C-0.68 27.33 0.64 27.66 2 28 C2.495 26.515 2.495 26.515 3 25 C3.66 26.65 4.32 28.3 5 30 C3.68 31.32 2.36 32.64 1 34 C1.67095703 33.45859375 1.67095703 33.45859375 2.35546875 32.90625 C7.35506003 29.06861063 7.35506003 29.06861063 10.9375 28.6875 C11.618125 28.790625 12.29875 28.89375 13 29 C13.495 30.98 13.495 30.98 14 33 C17.63 33.33 21.26 33.66 25 34 C25 35.32 25 36.64 25 38 C22.11862879 38.16949242 20.14854024 38.05796692 17.4375 37 C4.16569392 33.13911096 -11.01192823 37.955693 -22.86328125 44.14453125 C-25 45 -25 45 -28 44 C-26.6875 40.5625 -26.6875 40.5625 -25 37 C-23.515 36.505 -23.515 36.505 -22 36 C-22.33 34.68 -22.66 33.36 -23 32 C-22.01 31.67 -21.02 31.34 -20 31 C-20.66 30.34 -21.32 29.68 -22 29 C-21.835 28.236875 -21.67 27.47375 -21.5 26.6875 C-20.89890036 23.45658945 -21.58758135 21.90792074 -23 19 C-23.33 19.99 -23.66 20.98 -24 22 C-24.33 21.34 -24.66 20.68 -25 20 C-25.99 20.33 -26.98 20.66 -28 21 C-29.65 19.35 -31.3 17.7 -33 16 C-31.25 14.4375 -31.25 14.4375 -29 13 C-26.875 13.4375 -26.875 13.4375 -25 14 C-24.34 13.34 -23.68 12.68 -23 12 C-23 10.68 -23 9.36 -23 8 C-18.25 7 -18.25 7 -16 7 C-15.236875 6.814375 -14.47375 6.62875 -13.6875 6.4375 C-10.80548978 5.96833554 -8.80645055 6.27834129 -6 7 C-5.731875 6.195625 -5.46375 5.39125 -5.1875 4.5625 C-4.795625 3.716875 -4.40375 2.87125 -4 2 C-3.01 1.67 -2.02 1.34 -1 1 C-0.67 0.67 -0.34 0.34 0 0 Z M-22 13 C-21.34 13.66 -20.68 14.32 -20 15 C-20 14.34 -20 13.68 -20 13 C-20.66 13 -21.32 13 -22 13 Z M-20 19 C-19.01 20.485 -19.01 20.485 -18 22 C-18 21.01 -18 20.02 -18 19 C-18.66 19 -19.32 19 -20 19 Z M-18 22 C-18 22.99 -18 23.98 -18 25 C-17.34 24.67 -16.68 24.34 -16 24 C-16 23.34 -16 22.68 -16 22 C-16.66 22 -17.32 22 -18 22 Z M-19 25 C-18 27 -18 27 -18 27 Z " fill="#123654" transform="translate(87,52)"/>
<path d="M0 0 C6.75 1.75 6.75 1.75 9 4 C9.37125 3.505 9.7425 3.01 10.125 2.5 C12.78415486 0.37267611 14.67877525 0.72323127 18 1 C18.99 1.33 19.98 1.66 21 2 C21.680625 1.814375 22.36125 1.62875 23.0625 1.4375 C23.701875 1.293125 24.34125 1.14875 25 1 C25.66 1.66 26.32 2.32 27 3 C27.66 2.34 28.32 1.68 29 1 C29.99 1 30.98 1 32 1 C32 1.66 32 2.32 32 3 C32.66 3 33.32 3 34 3 C34 2.34 34 1.68 34 1 C36.3125 0.375 36.3125 0.375 39 0 C39.99 0.66 40.98 1.32 42 2 C42.99 1.34 43.98 0.68 45 0 C45.66 2.31 46.32 4.62 47 7 C47.66 5.02 48.32 3.04 49 1 C51.64 1 54.28 1 57 1 C57.495 4.96 57.495 4.96 58 9 C59.32 9.33 60.64 9.66 62 10 C62 10.99 62 11.98 62 13 C58.66666667 13 55.33333333 13 52 13 C50.845 13.04125 49.69 13.0825 48.5 13.125 C45 13 45 13 43 11 C42.34 11.66 41.68 12.32 41 13 C38.0625 13.125 38.0625 13.125 35 13 C34.01 13 33.02 13 32 13 C30.865625 12.979375 29.73125 12.95875 28.5625 12.9375 C25.71500897 12.98745598 23.69356313 13.30166882 21 14 C20.34 13.67 19.68 13.34 19 13 C18.236875 13.20625 17.47375 13.4125 16.6875 13.625 C13.1829446 14.11400773 11.81280674 13.00914767 9 11 C8.34 11.66 7.68 12.32 7 13 C3.5625 13.375 3.5625 13.375 0 13 C-2 11.375 -2 11.375 -3 9 C-2.76261647 5.12273569 -2.17282078 3.25923117 0 0 Z M21 3 C21 4.65 21 6.3 21 8 C21.33 8 21.66 8 22 8 C22 6.35 22 4.7 22 3 C21.67 3 21.34 3 21 3 Z M42 3 C41.67 4.32 41.34 5.64 41 7 C41.66 7 42.32 7 43 7 C42.67 5.68 42.34 4.36 42 3 Z M14 4 C13.01 5.485 13.01 5.485 12 7 C12.99 8.485 12.99 8.485 14 10 C15.32 9.34 16.64 8.68 18 8 C17.67 7.34 17.34 6.68 17 6 C16.67 5.34 16.34 4.68 16 4 C15.34 4 14.68 4 14 4 Z M3 4 C2.01 4.495 2.01 4.495 1 5 C1.33 6.65 1.66 8.3 2 10 C2.66 10 3.32 10 4 10 C4.66 8.68 5.32 7.36 6 6 C5.34 6 4.68 6 4 6 C3.67 5.34 3.34 4.68 3 4 Z M25 8 C26 11 26 11 26 11 Z M47 8 C47 8.66 47 9.32 47 10 C47.66 10 48.32 10 49 10 C49 9.34 49 8.68 49 8 C48.34 8 47.68 8 47 8 Z " fill="#10223A" transform="translate(54,123)"/>
<path d="M0 0 C3.86463725 0.41406828 6.12722 2.52621722 9 5 C9 4.01 9 3.02 9 2 C10.65 1.67 12.3 1.34 14 1 C14 3.64 14 6.28 14 9 C14.268125 8.236875 14.53625 7.47375 14.8125 6.6875 C15.99415892 4.01321929 16.64353655 2.68318818 19 1 C21.875 0 21.875 0 25 0 C27.9375 2.1875 27.9375 2.1875 30 5 C29.75 6.9375 29.75 6.9375 29 9 C29.20625 10.010625 29.4125 11.02125 29.625 12.0625 C30 15 30 15 29.0625 16.875 C25.83173721 18.63723425 22.5567941 18.43654817 19 18 C16.5 17 16.5 17 15 16 C15 14.35 15 12.7 15 11 C14.67 13.31 14.34 15.62 14 18 C10.75791433 17.64950425 9.38472296 17.43778819 7.1875 14.9375 C6.795625 14.298125 6.40375 13.65875 6 13 C5.67 14.32 5.34 15.64 5 17 C3.02 17.33 1.04 17.66 -1 18 C-2.13517087 12.19801557 -2.00629027 6.83648358 -1 1 C-0.67 0.67 -0.34 0.34 0 0 Z M21 5 C21.33 5.66 21.66 6.32 22 7 C22.99 7.33 23.98 7.66 25 8 C24.67 7.01 24.34 6.02 24 5 C23.01 5 22.02 5 21 5 Z M3 9 C4 11 4 11 4 11 Z M17 10 C18 12 18 12 18 12 Z M20 11 C20 11.66 20 12.32 20 13 C22.475 13.495 22.475 13.495 25 14 C24.67 13.34 24.34 12.68 24 12 C21.97536745 11.34786708 21.97536745 11.34786708 20 11 Z " fill="#0B2143" transform="translate(164,101)"/>
<path d="M0 0 C3.6186371 1.13920057 5.18134151 1.99137811 7.375 5.0625 C7.375 6.3825 7.375 7.7025 7.375 9.0625 C8.67548841 6.46152318 8.93971422 3.92294938 9.375 1.0625 C10.695 0.7325 12.015 0.4025 13.375 0.0625 C15.025 2.0425 16.675 4.0225 18.375 6.0625 C19.035 4.4125 19.695 2.7625 20.375 1.0625 C21.695 1.0625 23.015 1.0625 24.375 1.0625 C24.375 6.6725 24.375 12.2825 24.375 18.0625 C22.725 18.0625 21.075 18.0625 19.375 18.0625 C19.045 17.0725 18.715 16.0825 18.375 15.0625 C17.715 15.0625 17.055 15.0625 16.375 15.0625 C15.715 13.7425 15.055 12.4225 14.375 11.0625 C14.045 13.3725 13.715 15.6825 13.375 18.0625 C12.055 18.0625 10.735 18.0625 9.375 18.0625 C9.375 16.4125 9.375 14.7625 9.375 13.0625 C8.075625 14.2690625 8.075625 14.2690625 6.75 15.5 C3.69403113 18.02387076 1.43980711 19.0625 -2.625 19.0625 C-6.15406067 17.45838152 -7.45272908 16.32090638 -9.625 13.0625 C-10.02451993 9.96622055 -10.27450348 8.02262648 -9.625 5.0625 C-6.49597232 1.32293034 -4.91526448 0.08474594 0 0 Z M-2.625 5.0625 C-4.38962683 8.15059695 -4.625 9.29562136 -4.625 13.0625 C-1.655 13.5575 -1.655 13.5575 1.375 14.0625 C2.58797649 11.7818293 2.58797649 11.7818293 3.375 9.0625 C2.60896041 6.7767289 2.60896041 6.7767289 1.375 5.0625 C0.055 5.0625 -1.265 5.0625 -2.625 5.0625 Z " fill="#091F3A" transform="translate(81.625,100.9375)"/>
<path d="M0 0 C0.9384375 0.09023437 1.876875 0.18046875 2.84375 0.2734375 C8.95762712 1.08262712 8.95762712 1.08262712 11.5 3.625 C11.83 2.635 12.16 1.645 12.5 0.625 C13.49 0.295 14.48 -0.035 15.5 -0.375 C15.83 0.615 16.16 1.605 16.5 2.625 C17.49 1.965 18.48 1.305 19.5 0.625 C22.5 0.1875 22.5 0.1875 25.5 0.625 C27.4375 2.75 27.4375 2.75 28.5 5.625 C28.3125 8.875 28.3125 8.875 27.5 11.625 C24.28548731 13.23225635 21.06387464 12.68248185 17.5 12.625 C17.5 11.635 17.5 10.645 17.5 9.625 C16.51 11.11 16.51 11.11 15.5 12.625 C14.819375 12.41875 14.13875 12.2125 13.4375 12 C10.34911538 11.40645173 10.34911538 11.40645173 6.875 12.6875 C5.204375 13.1515625 5.204375 13.1515625 3.5 13.625 C2.51 12.965 1.52 12.305 0.5 11.625 C0.3125 8 0.3125 8 0.5 4.625 C-0.16 5.285 -0.82 5.945 -1.5 6.625 C-1.479375 7.45 -1.45875 8.275 -1.4375 9.125 C-1.458125 9.95 -1.47875 10.775 -1.5 11.625 C-2.49 12.285 -3.48 12.945 -4.5 13.625 C-6.5 11.625 -6.5 11.625 -6.625 8 C-6.58375 6.88625 -6.5425 5.7725 -6.5 4.625 C-7.49 4.295 -8.48 3.965 -9.5 3.625 C-9.5 2.635 -9.5 1.645 -9.5 0.625 C-6.17128803 -0.42699859 -3.45844642 -0.35154538 0 0 Z M21.5 3.625 C20.84 4.945 20.18 6.265 19.5 7.625 C20.16 8.285 20.82 8.945 21.5 9.625 C21.5 8.305 21.5 6.985 21.5 5.625 C22.49 5.295 23.48 4.965 24.5 4.625 C23.51 4.295 22.52 3.965 21.5 3.625 Z M9.5 8.625 C10.5 10.625 10.5 10.625 10.5 10.625 Z " fill="#102137" transform="translate(123.5,123.375)"/>
<path d="M0 0 C2.9375 0.375 2.9375 0.375 6 1 C6.99 1 7.98 1 9 1 C9 1.66 9 2.32 9 3 C8.01 3 7.02 3 6 3 C6.33 3.99 6.66 4.98 7 6 C6.01 6 5.02 6 4 6 C4 6.33 4 6.66 4 7 C3.67 7.99 3.34 8.98 3 10 C3 9.34 3 8.68 3 8 C2.01 8 1.02 8 0 8 C1.32 9.65 2.64 11.3 4 13 C1.69 12.34 -0.62 11.68 -3 11 C-3.33 11.66 -3.66 12.32 -4 13 C-5.11375 12.8453125 -5.11375 12.8453125 -6.25 12.6875 C-9.1920344 12.74290881 -9.1920344 12.74290881 -11.3125 15.1875 C-13.10380798 18.17301329 -13.38888658 19.5972424 -13 23 C-13.99 23.33 -14.98 23.66 -16 24 C-16 23.01 -16 22.02 -16 21 C-16.66 21 -17.32 21 -18 21 C-17.67 19.68 -17.34 18.36 -17 17 C-18.32 17.33 -19.64 17.66 -21 18 C-21 16.68 -21 15.36 -21 14 C-21.99 13.67 -22.98 13.34 -24 13 C-23.42655063 10.13275314 -23.1385485 9.1385485 -21 7 C-21.66 6.67 -22.32 6.34 -23 6 C-23 5.34 -23 4.68 -23 4 C-16.62717368 2.45172115 -10.80990619 1.82682245 -4.25 2.125 C-1.79489521 2.23942511 -1.79489521 2.23942511 0 0 Z " fill="#29475E" transform="translate(114,49)"/>
<path d="M0 0 C0.66 0 1.32 0 2 0 C1.67 2.64 1.34 5.28 1 8 C1.66 8 2.32 8 3 8 C3.67667998 9.24460783 4.34094719 10.49596896 5 11.75 C5.37125 12.44609375 5.7425 13.1421875 6.125 13.859375 C7 16 7 16 7 20 C7.66 20.33 8.32 20.66 9 21 C9 22.32 9 23.64 9 25 C8.34 25 7.68 25 7 25 C6.87625 25.61875 6.7525 26.2375 6.625 26.875 C6 29 6 29 4 31 C0.66126496 31.8922991 -2.55123886 32.23280491 -6 32 C-9.125 29.75 -9.125 29.75 -11 27 C-11 26.01 -11 25.02 -11 24 C-11.33 23.01 -11.66 22.02 -12 21 C-12.66 20.67 -13.32 20.34 -14 20 C-14 19.01 -14 18.02 -14 17 C-12.68 16.67 -11.36 16.34 -10 16 C-9.67 16.99 -9.34 17.98 -9 19 C-6.99983534 20.20882096 -6.99983534 20.20882096 -5 21 C-4.67 20.34 -4.34 19.68 -4 19 C-3.34 20.98 -2.68 22.96 -2 25 C-1.34 23.68 -0.68 22.36 0 21 C0.66 21 1.32 21 2 21 C2 21.66 2 22.32 2 23 C2.99 22.67 3.98 22.34 5 22 C4.01 21.34 3.02 20.68 2 20 C1.30534185 18.34605202 0.61503295 16.6899363 -0.0390625 15.01953125 C-1.80362459 11.31108166 -4.44014573 8.18946243 -7 5 C-6.67 4.34 -6.34 3.68 -6 3 C-4.35 3.33 -2.7 3.66 -1 4 C-0.67 2.68 -0.34 1.36 0 0 Z " fill="#0F3655" transform="translate(140,64)"/>
<path d="M0 0 C1.65 0 3.3 0 5 0 C5 3.96 5 7.92 5 12 C5.66 12 6.32 12 7 12 C6.67 9.69 6.34 7.38 6 5 C6.66 4.67 7.32 4.34 8 4 C9.13350534 1.98330173 9.13350534 1.98330173 10 0 C16.4 -0.49230769 16.4 -0.49230769 19.4375 2 C20.2109375 2.99 20.2109375 2.99 21 4 C20.67 4.99 20.34 5.98 20 7 C20.20625 8.155 20.4125 9.31 20.625 10.5 C21 14 21 14 19.83984375 15.6953125 C17.42905206 17.40487603 15.87204011 17.40093114 12.9375 17.375 C12.05964844 17.38273437 11.18179688 17.39046875 10.27734375 17.3984375 C9.52582031 17.26695313 8.77429687 17.13546875 8 17 C7.34 16.01 6.68 15.02 6 14 C5.67 14.99 5.34 15.98 5 17 C3.68 17 2.36 17 1 17 C0.67 11.39 0.34 5.78 0 0 Z M12 4 C12.33 4.66 12.66 5.32 13 6 C13.99 6 14.98 6 16 6 C15.67 5.34 15.34 4.68 15 4 C14.01 4 13.02 4 12 4 Z M8 9 C9 11 9 11 9 11 Z M12 11 C13.98 11.99 13.98 11.99 16 13 C16 12.34 16 11.68 16 11 C14.68 11 13.36 11 12 11 Z " fill="#082142" transform="translate(29,102)"/>
<path d="M0 0 C1.98 0.66 3.96 1.32 6 2 C6.12375 2.804375 6.2475 3.60875 6.375 4.4375 C6.684375 5.7059375 6.684375 5.7059375 7 7 C7.66 7.33 8.32 7.66 9 8 C11.22189824 5.77810176 11.92598892 3.91517292 13 1 C14.66611905 0.957279 16.33382885 0.95936168 18 1 C19 2 19 2 19.09765625 5.59765625 C19.0909822 7.08596867 19.07902183 8.57426432 19.0625 10.0625 C19.05798828 10.82111328 19.05347656 11.57972656 19.04882812 12.36132812 C19.0370068 14.24091871 19.01907078 16.12046899 19 18 C17.35 18 15.7 18 14 18 C14 17.01 14 16.02 14 15 C13.34 15 12.68 15 12 15 C11.67 15.99 11.34 16.98 11 18 C9.35 18 7.7 18 6 18 C6 16.35 6 14.7 6 13 C5.34 14.65 4.68 16.3 4 18 C2.68 18 1.36 18 0 18 C-1.03863773 11.76817361 -0.83288874 6.25307239 0 0 Z " fill="#091F3B" transform="translate(9,101)"/>
<path d="M0 0 C3.625 0.25 3.625 0.25 5.5 1.3125 C7.15985045 4.17113133 7.31815029 6.99739303 7.625 10.25 C7.955 6.95 8.285 3.65 8.625 0.25 C10.275 0.25 11.925 0.25 13.625 0.25 C13.625 5.86 13.625 11.47 13.625 17.25 C11.975 17.25 10.325 17.25 8.625 17.25 C8.295 16.26 7.965 15.27 7.625 14.25 C7.13 14.930625 6.635 15.61125 6.125 16.3125 C3.30139362 18.50079494 2.86327184 18.4783227 -0.5 18.0625 C-4.375 17.25 -4.375 17.25 -6.375 16.25 C-6.375 14.6 -6.375 12.95 -6.375 11.25 C-5.715 11.25 -5.055 11.25 -4.375 11.25 C-4.72286708 9.27463255 -4.72286708 9.27463255 -5.375 7.25 C-6.035 6.92 -6.695 6.59 -7.375 6.25 C-3.85762165 0.28574975 -3.85762165 0.28574975 0 0 Z M-1.375 4.25 C-1.375 4.91 -1.375 5.57 -1.375 6.25 C-0.055 6.58 1.265 6.91 2.625 7.25 C2.295 6.26 1.965 5.27 1.625 4.25 C0.635 4.25 -0.355 4.25 -1.375 4.25 Z M-3.375 10.25 C-2.055 11.57 -0.735 12.89 0.625 14.25 C1.285 13.59 1.945 12.93 2.625 12.25 C-0.19009993 9.9726499 -0.19009993 9.9726499 -3.375 10.25 Z " fill="#0F243F" transform="translate(57.375,101.75)"/>
<path d="M0 0 C2.62570704 0.25069913 2.62570704 0.25069913 5 0 C5.66 0 6.32 0 7 0 C10.72619884 -0.48302578 14.37791509 -0.98581623 18 -2 C18.33 -1.34 18.66 -0.68 19 0 C22.06715907 1.16340517 23.90579927 0.84387293 27 0 C28.66623639 -0.03786901 30.33397597 -0.04627845 32 0 C32.495 2.475 32.495 2.475 33 5 C32.01 5.66 31.02 6.32 30 7 C28 6 28 6 27 5 C24.5835876 5.48328248 22.34167817 6.21944061 20 7 C18.18702114 7 16.37309963 6.96785126 14.5625 6.875 C11.82175705 7.00869478 10.39640187 7.76048179 8 9 C7.34 8.67 6.68 8.34 6 8 C6 7.34 6 6.68 6 6 C5.17048828 6.24363281 5.17048828 6.24363281 4.32421875 6.4921875 C1.7582996 7.05280849 -0.56299677 7.13275333 -3.1875 7.125 C-4.06792969 7.12757813 -4.94835937 7.13015625 -5.85546875 7.1328125 C-8 7 -8 7 -9 6 C-9.14115161 3.32941149 -9.04247107 0.67567762 -9 -2 C-5.00627721 -3.62707225 -3.49716931 -2.13242031 0 0 Z " fill="#141F30" transform="translate(89,142)"/>
<path d="M0 0 C1.32 0.33 2.64 0.66 4 1 C4 6.61 4 12.22 4 18 C2.68 18 1.36 18 0 18 C-0.33 16.68 -0.66 15.36 -1 14 C-2.485 16.475 -2.485 16.475 -4 19 C-4.7425 18.62875 -5.485 18.2575 -6.25 17.875 C-8.94283647 16.70484137 -8.94283647 16.70484137 -11.3125 17.875 C-12.1478125 18.431875 -12.1478125 18.431875 -13 19 C-16.56334257 13.65498614 -15.01378848 7.08273091 -14 1 C-12.35 1 -10.7 1 -9 1 C-6 7.625 -6 7.625 -6 11 C-5.34 11 -4.68 11 -4 11 C-3.896875 10.113125 -3.79375 9.22625 -3.6875 8.3125 C-2.98809298 4.9426298 -1.91257489 2.82728462 0 0 Z " fill="#0C2441" transform="translate(127,101)"/>
<path d="M0 0 C1.32 0 2.64 0 4 0 C4 0.99 4 1.98 4 3 C4.99 3.33 5.98 3.66 7 4 C6.67 4.66 6.34 5.32 6 6 C5.34 6 4.68 6 4 6 C4.04125 6.7425 4.0825 7.485 4.125 8.25 C3.98964925 11.22771642 3.79844343 12.62932457 2 15 C-1.125 16.25 -1.125 16.25 -4 17 C-4 14.69 -4 12.38 -4 10 C-4.33 10.66 -4.66 11.32 -5 12 C-6.9375 12.5625 -6.9375 12.5625 -9 13 C-9.99 13.495 -9.99 13.495 -11 14 C-11.65555119 16.52733235 -11.65555119 16.52733235 -12 19 C-11.01 18.34 -10.02 17.68 -9 17 C-8.01 17 -7.02 17 -6 17 C-6 21 -6 21 -7 23 C-7.66 22.67 -8.32 22.34 -9 22 C-8.67 22.99 -8.34 23.98 -8 25 C-8.66 25 -9.32 25 -10 25 C-10 23.68 -10 22.36 -10 21 C-11.65 21 -13.3 21 -15 21 C-15.33 20.01 -15.66 19.02 -16 18 C-16.99 18 -17.98 18 -19 18 C-18.67 17.34 -18.34 16.68 -18 16 C-17.32669322 13.98007967 -16.72327451 11.9356712 -16.1875 9.875 C-15 7 -15 7 -13.1875 6.0625 C-10.65175362 5.9900501 -8.4558981 6.38602547 -6 7 C-5.731875 6.195625 -5.46375 5.39125 -5.1875 4.5625 C-4.795625 3.716875 -4.40375 2.87125 -4 2 C-3.01 1.67 -2.02 1.34 -1 1 C-0.67 0.67 -0.34 0.34 0 0 Z " fill="#263C4F" transform="translate(87,52)"/>
<path d="M0 0 C1.2065625 0.2475 1.2065625 0.2475 2.4375 0.5 C4.97658116 1.26597109 4.97658116 1.26597109 7 0 C7.33 0.99 7.66 1.98 8 3 C7.34 3 6.68 3 6 3 C5.31292445 5.49064888 5 7.37886292 5 10 C5.66 10 6.32 10 7 10 C6.67 11.32 6.34 12.64 6 14 C6.61875 13.814375 7.2375 13.62875 7.875 13.4375 C10 13 10 13 12 14 C11.67 15.32 11.34 16.64 11 18 C10.34 17.67 9.68 17.34 9 17 C8.67 18.65 8.34 20.3 8 22 C7.13375 21.690625 7.13375 21.690625 6.25 21.375 C3.48032433 20.91338739 2.35438733 21.57055055 0 23 C0.20625 22.113125 0.4125 21.22625 0.625 20.3125 C1.02550239 16.7747289 0.56683516 15.13367033 -1 12 C-1.33 12.99 -1.66 13.98 -2 15 C-2.33 14.34 -2.66 13.68 -3 13 C-3.99 13.33 -4.98 13.66 -6 14 C-7.65 12.35 -9.3 10.7 -11 9 C-9.25 7.4375 -9.25 7.4375 -7 6 C-4.875 6.4375 -4.875 6.4375 -3 7 C-2.34 6.34 -1.68 5.68 -1 5 C-1 3.68 -1 2.36 -1 1 C-0.67 0.67 -0.34 0.34 0 0 Z M0 6 C0.66 6.66 1.32 7.32 2 8 C2 7.34 2 6.68 2 6 C1.34 6 0.68 6 0 6 Z M2 12 C2.99 13.485 2.99 13.485 4 15 C4 14.01 4 13.02 4 12 C3.34 12 2.68 12 2 12 Z M4 15 C4 15.99 4 16.98 4 18 C4.66 17.67 5.32 17.34 6 17 C6 16.34 6 15.68 6 15 C5.34 15 4.68 15 4 15 Z M3 18 C4 20 4 20 4 20 Z " fill="#1B2F41" transform="translate(65,59)"/>
<path d="M0 0 C4.39993884 -0.16922842 7.14762812 -0.04657256 11 2 C13.32495277 2.38749213 15.65851268 2.72982839 18 3 C18.33 2.34 18.66 1.68 19 1 C21.5625 0.375 21.5625 0.375 24 0 C24 0.66 24 1.32 24 2 C24.99 2 25.98 2 27 2 C27.625 3.8125 27.625 3.8125 28 6 C27.01 7.485 27.01 7.485 26 9 C25.38125 8.814375 24.7625 8.62875 24.125 8.4375 C21.95839822 7.76313824 21.95839822 7.76313824 20 9 C19.01 8.67 18.02 8.34 17 8 C14.8566941 8.68595216 14.8566941 8.68595216 12.625 9.6875 C10.23046875 10.5625 10.23046875 10.5625 8 11 C4.9375 9.1875 4.9375 9.1875 3 7 C2.34 7.66 1.68 8.32 1 9 C-0.61949011 6.42786866 -1.04408751 5.32330841 -0.625 2.25 C-0.41875 1.5075 -0.2125 0.765 0 0 Z M8 5 C9 8 9 8 9 8 Z " fill="#1B2A3E" transform="translate(44,140)"/>
<path d="M0 0 C0.969375 0.185625 1.93875 0.37125 2.9375 0.5625 C3.948125 0.706875 4.95875 0.85125 6 1 C6.33 0.67 6.66 0.34 7 0 C11.58601144 -0.36020396 15.55335535 -0.16139077 19.21875 2.78125 C24 8.18954918 24 8.18954918 24 11 C22.68 11.33 21.36 11.66 20 12 C19.67 11.01 19.34 10.02 19 9 C18.34 9 17.68 9 17 9 C16.67 10.32 16.34 11.64 16 13 C14.35 13 12.7 13 11 13 C11.515625 13.78375 12.03125 14.5675 12.5625 15.375 C13.2740625 16.674375 13.2740625 16.674375 14 18 C13.67 18.66 13.34 19.32 13 20 C12.01 18.68 11.02 17.36 10 16 C9.34 16.66 8.68 17.32 8 18 C5.875 13.375 5.875 13.375 7 10 C9.0625 8.8125 9.0625 8.8125 11 8 C6.97832683 5.03162219 3.99911924 3.47610659 -1 3 C-0.67 2.01 -0.34 1.02 0 0 Z " fill="#1F4363" transform="translate(123,55)"/>
<path d="M0 0 C1.50433594 0.01353516 1.50433594 0.01353516 3.0390625 0.02734375 C3.80992187 0.03894531 4.58078125 0.05054687 5.375 0.0625 C5.375 1.7125 5.375 3.3625 5.375 5.0625 C4.055 5.0625 2.735 5.0625 1.375 5.0625 C2.365 5.3925 3.355 5.7225 4.375 6.0625 C4.705 7.0525 5.035 8.0425 5.375 9.0625 C4.385 10.0525 3.395 11.0425 2.375 12.0625 C1.385 11.7325 0.395 11.4025 -0.625 11.0625 C-0.955 11.7225 -1.285 12.3825 -1.625 13.0625 C-0.635 12.7325 0.355 12.4025 1.375 12.0625 C3.5625 12.5 3.5625 12.5 5.375 13.0625 C5.375 14.3825 5.375 15.7025 5.375 17.0625 C1.415 17.0625 -2.545 17.0625 -6.625 17.0625 C-7.20499356 11.69755955 -7.76718705 6.46560787 -7.625 1.0625 C-4.98041621 -0.25979189 -2.94738699 -0.03427194 0 0 Z " fill="#071D37" transform="translate(139.625,101.9375)"/>
<path d="M0 0 C0.33 1.98 0.66 3.96 1 6 C1.66 6 2.32 6 3 6 C3.33 5.34 3.66 4.68 4 4 C5.65 4.33 7.3 4.66 9 5 C9 5.66 9 6.32 9 7 C7.68 7 6.36 7 5 7 C5.66 8.32 6.32 9.64 7 11 C7.33 10.01 7.66 9.02 8 8 C9.32 8.33 10.64 8.66 12 9 C11.1875 11.4375 11.1875 11.4375 10 14 C9.01 14.33 8.02 14.66 7 15 C6.67 15.99 6.34 16.98 6 18 C4.02 18 2.04 18 0 18 C1.32 16.02 2.64 14.04 4 12 C3.5875 12.45375 3.175 12.9075 2.75 13.375 C0.93591905 15.05950374 -0.75285627 15.99265971 -3 17 C-2.67 18.32 -2.34 19.64 -2 21 C-2.66 21.33 -3.32 21.66 -4 22 C-4 21.34 -4 20.68 -4 20 C-4.99 19.67 -5.98 19.34 -7 19 C-5.40909091 12.40909091 -5.40909091 12.40909091 -4 11 C-3.31731862 9.67479497 -2.6492959 8.34187818 -2 7 C-3.32 7 -4.64 7 -6 7 C-6 7.66 -6 8.32 -6 9 C-6.66 9 -7.32 9 -8 9 C-6.52892562 2.38016529 -6.52892562 2.38016529 -4 0.5625 C-2 0 -2 0 0 0 Z " fill="#2A445B" transform="translate(83,62)"/>
<path d="M0 0 C0.5775 0.515625 1.155 1.03125 1.75 1.5625 C3.85300441 3.25384701 3.85300441 3.25384701 6.0625 2.6875 C7.0215625 2.3471875 7.0215625 2.3471875 8 2 C8.99 2 9.98 2 11 2 C13.1875 5 13.1875 5 15 8 C13.68 9.65 12.36 11.3 11 13 C11 10.66666667 11 8.33333333 11 6 C10.01 5.34 9.02 4.68 8 4 C8.33 6.97 8.66 9.94 9 13 C8.34 11.68 7.68 10.36 7 9 C2.67998734 9.48000141 0.72677809 10.61503409 -2 14 C-3.25436187 16.63222962 -3.25436187 16.63222962 -4 19 C-4.66 18.67 -5.32 18.34 -6 18 C-6 16.68 -6 15.36 -6 14 C-9.95199987 15.16763633 -12.7725527 16.46414855 -16 19 C-16.66 19 -17.32 19 -18 19 C-16.48468753 14.75712508 -13.71726317 13.33240042 -10 11 C-8.700625 9.948125 -8.700625 9.948125 -7.375 8.875 C-5 7 -5 7 -2.75 6.0625 C-0.70480489 5.09194817 -0.70480489 5.09194817 -0.25 2.375 C-0.1675 1.59125 -0.085 0.8075 0 0 Z M6 3 C7 5 7 5 7 5 Z " fill="#183F5F" transform="translate(106,67)"/>
<path d="M0 0 C1.11375 1.0209375 1.11375 1.0209375 2.25 2.0625 C2.58 1.0725 2.91 0.0825 3.25 -0.9375 C4.57 -0.6075 5.89 -0.2775 7.25 0.0625 C7.25 0.7225 7.25 1.3825 7.25 2.0625 C10.3401005 1.54748325 13.4234132 1.02915131 16.5 0.4375 C19.25 0.0625 19.25 0.0625 21.25 1.0625 C21.25 3.0425 21.25 5.0225 21.25 7.0625 C15.625 8.1875 15.625 8.1875 12.25 7.0625 C11.26 7.3925 10.27 7.7225 9.25 8.0625 C8.59 7.7325 7.93 7.4025 7.25 7.0625 C4.91711508 7.01675716 2.58301986 7.02425377 0.25 7.0625 C-6.52777778 7.17361111 -6.52777778 7.17361111 -8.75 6.0625 C-8.875 3.6875 -8.875 3.6875 -8.75 1.0625 C-5.47784962 -2.20965038 -3.9044055 -2.75083115 0 0 Z M-5.75 1.0625 C-5.75 2.3825 -5.75 3.7025 -5.75 5.0625 C-4.43 5.0625 -3.11 5.0625 -1.75 5.0625 C-1.75 3.7425 -1.75 2.4225 -1.75 1.0625 C-3.07 1.0625 -4.39 1.0625 -5.75 1.0625 Z M14.25 2.0625 C15.25 5.0625 15.25 5.0625 15.25 5.0625 Z M10.25 3.0625 C10.25 3.7225 10.25 4.3825 10.25 5.0625 C10.91 4.7325 11.57 4.4025 12.25 4.0625 C11.59 3.7325 10.93 3.4025 10.25 3.0625 Z " fill="#182737" transform="translate(138.75,140.9375)"/>
<path d="M0 0 C2.375 -0.1875 2.375 -0.1875 5 0 C7 3 7 3 7 6 C7.66 6.33 8.32 6.66 9 7 C9.6328125 9.28515625 9.6328125 9.28515625 10.125 12.0625 C10.29257813 12.98160156 10.46015625 13.90070313 10.6328125 14.84765625 C10.75398437 15.55792969 10.87515625 16.26820312 11 17 C7.20088882 16.28159908 3.65341173 15.27444595 0 14 C-0.33 14.99 -0.66 15.98 -1 17 C-2.32 17 -3.64 17 -5 17 C-5 15.02 -5 13.04 -5 11 C-4.34 11 -3.68 11 -3 11 C-2.87625 10.29875 -2.7525 9.5975 -2.625 8.875 C-1.96161655 5.82343613 -1.02788045 2.94659062 0 0 Z M2 8 C2.33 8.66 2.66 9.32 3 10 C3.33 9.34 3.66 8.68 4 8 C3.34 8 2.68 8 2 8 Z " fill="#09203F" transform="translate(151,102)"/>
<path d="M0 0 C0.66 0.33 1.32 0.66 2 1 C2.625 4.0625 2.625 4.0625 3 7 C3.66 5.02 4.32 3.04 5 1 C7.64 1 10.28 1 13 1 C13.33 3.64 13.66 6.28 14 9 C15.32 9.33 16.64 9.66 18 10 C18 10.99 18 11.98 18 13 C14.66666667 13 11.33333333 13 8 13 C6.845 13.04125 5.69 13.0825 4.5 13.125 C1 13 1 13 -1 11 C-1.484375 8.90625 -1.484375 8.90625 -1.75 6.5 C-1.84796875 5.7059375 -1.9459375 4.911875 -2.046875 4.09375 C-2 2 -2 2 0 0 Z M3 8 C3 8.66 3 9.32 3 10 C3.66 10 4.32 10 5 10 C5 9.34 5 8.68 5 8 C4.34 8 3.68 8 3 8 Z " fill="#102546" transform="translate(98,123)"/>
<path d="M0 0 C0.721875 0.0825 1.44375 0.165 2.1875 0.25 C2.5175 1.57 2.8475 2.89 3.1875 4.25 C8.6325 4.745 8.6325 4.745 14.1875 5.25 C14.1875 6.57 14.1875 7.89 14.1875 9.25 C11.30612879 9.41949242 9.33604024 9.30796692 6.625 8.25 C-3.47364145 5.3122134 -13.83911948 7.96102742 -23.8125 10.25 C-22.8125 7.25 -22.8125 7.25 -21.08984375 6.0859375 C-18.43335099 5.11082695 -16.19880592 4.97682934 -13.375 4.875 C-7.73540806 4.47805661 -5.05393183 0.44923839 0 0 Z " fill="#16324B" transform="translate(97.8125,80.75)"/>
<path d="M0 0 C1 2 1 2 0.9375 4.5 C0.71706155 7.17653739 0.71706155 7.17653739 3 9 C4.32 8.34 5.64 7.68 7 7 C7.61875 7.969375 8.2375 8.93875 8.875 9.9375 C10.65678846 13.02835362 10.65678846 13.02835362 13 14 C13.625 16.0625 13.625 16.0625 14 18 C10.75791433 17.64950425 9.38472296 17.43778819 7.1875 14.9375 C6.795625 14.298125 6.40375 13.65875 6 13 C5.67 14.32 5.34 15.64 5 17 C3.02 17.33 1.04 17.66 -1 18 C-2.13517087 12.19801557 -2.00629027 6.83648358 -1 1 C-0.67 0.67 -0.34 0.34 0 0 Z " fill="#081833" transform="translate(164,101)"/>
<path d="M0 0 C1.98 0 3.96 0 6 0 C6 0.99 6 1.98 6 3 C10.95 4.98 10.95 4.98 16 7 C12.61981674 7.84504582 10.38960053 8 7 8 C5.6696875 8.2784375 5.6696875 8.2784375 4.3125 8.5625 C2 9 2 9 0 8 C-1.32 9.65 -2.64 11.3 -4 13 C-6.46800047 11.84826645 -8.04783565 10.95216435 -10 9 C-8 8 -8 8 -6 8 C-6.33 7.34 -6.66 6.68 -7 6 C-5.68 6.33 -4.36 6.66 -3 7 C-3 6.01 -3 5.02 -3 4 C-2.01 4 -1.02 4 0 4 C0 2.68 0 1.36 0 0 Z " fill="#103453" transform="translate(123,48)"/>
<path d="M0 0 C2.9375 0.375 2.9375 0.375 6 1 C6.99 1 7.98 1 9 1 C9 1.66 9 2.32 9 3 C8.01 3 7.02 3 6 3 C6.33 3.99 6.66 4.98 7 6 C6.01 6 5.02 6 4 6 C4 6.33 4 6.66 4 7 C3.67 7.99 3.34 8.98 3 10 C3 9.34 3 8.68 3 8 C2.01 8 1.02 8 0 8 C1.32 9.65 2.64 11.3 4 13 C1.69 12.34 -0.62 11.68 -3 11 C-3.33 11.66 -3.66 12.32 -4 13 C-5.32 13 -6.64 13 -8 13 C-8 11.68 -8 10.36 -8 9 C-8.99 9.495 -8.99 9.495 -10 10 C-10 8.68 -10 7.36 -10 6 C-9.05125 5.896875 -8.1025 5.79375 -7.125 5.6875 C-3.70892499 5.31460705 -3.70892499 5.31460705 -2 2 C-1.34 1.34 -0.68 0.68 0 0 Z " fill="#264059" transform="translate(114,49)"/>
<path d="M0 0 C2.32472205 2.85306797 3.7508258 5.54074837 5 9 C5.99 9 6.98 9 8 9 C7.319375 7.88625 6.63875 6.7725 5.9375 5.625 C4.77734375 3.7265625 4.77734375 3.7265625 4 2 C4.33 1.34 4.66 0.68 5 0 C5.28875 0.639375 5.5775 1.27875 5.875 1.9375 C6.82823451 4.15206079 6.82823451 4.15206079 9 5 C9.144375 5.61875 9.28875 6.2375 9.4375 6.875 C10.09717457 9.36710392 11.08288629 10.3329446 13 12 C11.68 12 10.36 12 9 12 C9 11.34 9 10.68 9 10 C8.01 10.495 8.01 10.495 7 11 C6.34444881 13.52733235 6.34444881 13.52733235 6 16 C4.04783565 14.04783565 3.15173355 12.46800047 2 10 C0.35 10 -1.3 10 -3 10 C-2.67 9.34 -2.34 8.68 -2 8 C-2.33 7.34 -2.66 6.68 -3 6 C-4.32 6 -5.64 6 -7 6 C-7.33 6.99 -7.66 7.98 -8 9 C-8 5 -8 5 -6 3 C-6 2.34 -6 1.68 -6 1 C-3 2 -3 2 -1 4 C-0.67 2.68 -0.34 1.36 0 0 Z " fill="#1B4467" transform="translate(133,75)"/>
<path d="M0 0 C1.65 0 3.3 0 5 0 C5.19493195 2.27020744 5.38070418 4.54120289 5.5625 6.8125 C5.66691406 8.07707031 5.77132812 9.34164062 5.87890625 10.64453125 C6 14 6 14 5 17 C3.68 17 2.36 17 1 17 C0.67 11.39 0.34 5.78 0 0 Z " fill="#122B4B" transform="translate(29,102)"/>
<path d="M0 0 C0.99 0 1.98 0 3 0 C3.33 2.31 3.66 4.62 4 7 C5.32 7 6.64 7 8 7 C8 7.66 8 8.32 8 9 C7.360625 9.12375 6.72125 9.2475 6.0625 9.375 C5.381875 9.58125 4.70125 9.7875 4 10 C3.67 10.66 3.34 11.32 3 12 C0.36 11.67 -2.28 11.34 -5 11 C-4.67 10.34 -4.34 9.68 -4 9 C-2.68 9 -1.36 9 0 9 C-0.185625 7.700625 -0.37125 6.40125 -0.5625 5.0625 C-0.87890625 2.84765625 -0.87890625 2.84765625 -1 1 C-0.67 0.67 -0.34 0.34 0 0 Z " fill="#0C192B" transform="translate(83,124)"/>
<path d="M0 0 C1.65 0 3.3 0 5 0 C5 0.66 5 1.32 5 2 C4.01 2 3.02 2 2 2 C2.16371094 2.54140625 2.32742187 3.0828125 2.49609375 3.640625 C3.08590587 6.40222593 3.09609308 8.92818139 3.0625 11.75 C3.05347656 12.73484375 3.04445313 13.7196875 3.03515625 14.734375 C3.02355469 15.48203125 3.01195313 16.2296875 3 17 C2.01 17 1.02 17 0 17 C-0.98844951 13.05352382 -0.96191905 9.72607036 -0.5625 5.6875 C-0.46066406 4.61886719 -0.35882813 3.55023438 -0.25390625 2.44921875 C-0.17011719 1.64097656 -0.08632812 0.83273438 0 0 Z " fill="#081C35" transform="translate(113,102)"/>
<path d="M0 0 C1.32 0 2.64 0 4 0 C4 0.99 4 1.98 4 3 C4.99 3.33 5.98 3.66 7 4 C6.67 4.66 6.34 5.32 6 6 C5.34 6 4.68 6 4 6 C3.67 6.66 3.34 7.32 3 8 C0.36 7.67 -2.28 7.34 -5 7 C-4.67 5.35 -4.34 3.7 -4 2 C-3.01 1.67 -2.02 1.34 -1 1 C-0.67 0.67 -0.34 0.34 0 0 Z " fill="#203641" transform="translate(87,52)"/>
<path d="M0 0 C0.33 1.32 0.66 2.64 1 4 C-0.11375 4.0825 -1.2275 4.165 -2.375 4.25 C-6.05753944 4.57873787 -6.05753944 4.57873787 -7.4375 7.0625 C-7.623125 7.701875 -7.80875 8.34125 -8 9 C-9.98 8.34 -11.96 7.68 -14 7 C-13.67 6.01 -13.34 5.02 -13 4 C-12.01 3.67 -11.02 3.34 -10 3 C-9.01 2.34 -8.02 1.68 -7 1 C-4.67612053 0.60612212 -2.34206251 0.26513915 0 0 Z " fill="#2F4F62" transform="translate(110,51)"/>
<path d="M0 0 C0.99 0.33 1.98 0.66 3 1 C3 1.66 3 2.32 3 3 C3.66 3.33 4.32 3.66 5 4 C5 4.99 5 5.98 5 7 C4.34 7 3.68 7 3 7 C3 8.65 3 10.3 3 12 C4.134375 12.12375 5.26875 12.2475 6.4375 12.375 C7.613125 12.58125 8.78875 12.7875 10 13 C10.33 13.66 10.66 14.32 11 15 C8.8125 15.8125 8.8125 15.8125 6 16 C3.1875 13.75 3.1875 13.75 1 11 C1 10.01 1 9.02 1 8 C0.67 7.01 0.34 6.02 0 5 C-0.66 4.67 -1.32 4.34 -2 4 C-2 3.01 -2 2.02 -2 1 C-1.34 0.67 -0.68 0.34 0 0 Z " fill="#0F2840" transform="translate(128,80)"/>
<path d="M0 0 C8.056 1.976 8.056 1.976 10 5 C10.6875 8.1875 10.6875 8.1875 11 11 C8 10 8 10 7 9 C6.01 9.495 6.01 9.495 5 10 C4.87625 9.071875 4.87625 9.071875 4.75 8.125 C4.20005805 5.8234856 4.20005805 5.8234856 2 4.875 C1.34 4.58625 0.68 4.2975 0 4 C-0.33 3.34 -0.66 2.68 -1 2 C-0.67 1.34 -0.34 0.68 0 0 Z " fill="#14223E" transform="translate(54,123)"/>
<path d="M0 0 C0.70640625 0.47308594 1.4128125 0.94617188 2.140625 1.43359375 C2.67171875 1.80613281 3.2028125 2.17867187 3.75 2.5625 C2.76 4.0475 2.76 4.0475 1.75 5.5625 C-1.32921132 5.81910094 -3.46136993 5.95681504 -6.25 4.5625 C-8.25 1.5625 -8.25 1.5625 -8.25 -1.4375 C-4.60264976 -2.80936372 -3.15576097 -2.15643667 0 0 Z " fill="#1A2643" transform="translate(88.25,141.4375)"/>
<path d="M0 0 C0.495 0.37125 0.99 0.7425 1.5 1.125 C-1.14738916 2.5856285 -2.39448334 3.125 -5.5 3.125 C-5.17 4.115 -4.84 5.105 -4.5 6.125 C-3.84 6.455 -3.18 6.785 -2.5 7.125 C-2.5 8.115 -2.5 9.105 -2.5 10.125 C-5.47 9.63 -5.47 9.63 -8.5 9.125 C-8.5 7.475 -8.5 5.825 -8.5 4.125 C-9.16 3.795 -9.82 3.465 -10.5 3.125 C-10.5 2.465 -10.5 1.805 -10.5 1.125 C-3.11538462 -1.09038462 -3.11538462 -1.09038462 0 0 Z " fill="#2A3F4E" transform="translate(101.5,51.875)"/>
<path d="M0 0 C0.66 0 1.32 0 2 0 C2 1.32 2 2.64 2 4 C3.32 3.34 4.64 2.68 6 2 C6.66 2.66 7.32 3.32 8 4 C7.01 4.495 7.01 4.495 6 5 C6 5.99 6 6.98 6 8 C4.02 8 2.04 8 0 8 C-0.33 8.66 -0.66 9.32 -1 10 C-1.66 9.67 -2.32 9.34 -3 9 C-2.67 8.34 -2.34 7.68 -2 7 C-2.66 6.67 -3.32 6.34 -4 6 C-2 5 -2 5 -1 5 C-1 3.68 -1 2.36 -1 1 C-0.67 0.67 -0.34 0.34 0 0 Z " fill="#183955" transform="translate(91,63)"/>
<path d="M0 0 C1.32 0 2.64 0 4 0 C4 0.66 4 1.32 4 2 C4.99 2 5.98 2 7 2 C7.625 3.8125 7.625 3.8125 8 6 C7.01 7.485 7.01 7.485 6 9 C5.38125 8.814375 4.7625 8.62875 4.125 8.4375 C1.95839822 7.76313824 1.95839822 7.76313824 0 9 C-0.99 8.01 -1.98 7.02 -3 6 C-1.02 5.67 0.96 5.34 3 5 C3 4.01 3 3.02 3 2 C2.01 2 1.02 2 0 2 C0 1.34 0 0.68 0 0 Z " fill="#152838" transform="translate(64,140)"/>
<path d="M0 0 C0.78375 0.9075 1.5675 1.815 2.375 2.75 C2.973125 3.306875 3.57125 3.86375 4.1875 4.4375 C5.375 5.75 5.375 5.75 5.375 7.75 C4.055 8.08 2.735 8.41 1.375 8.75 C1.375 7.76 1.375 6.77 1.375 5.75 C-0.62315803 4.09063127 -0.62315803 4.09063127 -3.125 2.625 C-4.63757651 1.68664235 -6.14123792 0.73328677 -7.625 -0.25 C-7.625 -0.58 -7.625 -0.91 -7.625 -1.25 C-3.90805028 -2.63058132 -3.10194852 -2.65881302 0 0 Z " fill="#18334D" transform="translate(141.625,58.25)"/>
<path d="M0 0 C3.63 0 7.26 0 11 0 C11 1.65 11 3.3 11 5 C9.741875 5.04125 8.48375 5.0825 7.1875 5.125 C6.47980469 5.14820312 5.77210938 5.17140625 5.04296875 5.1953125 C3 5 3 5 0 3 C0 2.01 0 1.02 0 0 Z " fill="#152A3F" transform="translate(134,102)"/>
<path d="M0 0 C0.66 0.66 1.32 1.32 2 2 C1.0409375 2.680625 1.0409375 2.680625 0.0625 3.375 C-2.09702406 4.83921726 -2.09702406 4.83921726 -3 7 C-1.02 6.67 0.96 6.34 3 6 C3 6.99 3 7.98 3 9 C-3.75 9.125 -3.75 9.125 -6 8 C-6.125 5.625 -6.125 5.625 -6 3 C-3.86437246 0.86437246 -2.93453261 0.36681658 0 0 Z " fill="#151E2A" transform="translate(136,139)"/>
<path d="M0 0 C2.875 -0.125 2.875 -0.125 6 0 C6.66 0.66 7.32 1.32 8 2 C7.8125 5 7.8125 5 7 8 C6.01 8.66 5.02 9.32 4 10 C3.34 9.67 2.68 9.34 2 9 C2 7.68 2 6.36 2 5 C2.66 4.67 3.32 4.34 4 4 C3.01 3.34 2.02 2.68 1 2 C0.67 1.34 0.34 0.68 0 0 Z " fill="#15283C" transform="translate(143,124)"/>
<path d="M0 0 C0.33 0.66 0.66 1.32 1 2 C2.99319761 2.26140296 4.98774473 2.51730424 6.98828125 2.71484375 C9.29528168 3.04185546 11.02738757 3.76711723 13 5 C9.90509624 5.91700852 7.21289068 6 4 6 C2.32656552 6.29749946 0.65694085 6.62127066 -1 7 C-0.67 6.34 -0.34 5.68 0 5 C-0.66 4.34 -1.32 3.68 -2 3 C-1.34 2.01 -0.68 1.02 0 0 Z " fill="#183C5A" transform="translate(126,50)"/>
<path d="M0 0 C0.33 1.65 0.66 3.3 1 5 C-2.37817425 5.84454356 -4.67465243 6.10844919 -8 5 C-7.75 3.125 -7.75 3.125 -7 1 C-4.09342573 -1.03460199 -3.47133392 -1.15711131 0 0 Z " fill="#23334A" transform="translate(104,143)"/>
<path d="M0 0 C-0.99 1.485 -0.99 1.485 -2 3 C-1.9690625 4.2684375 -1.9690625 4.2684375 -1.9375 5.5625 C-1.958125 6.366875 -1.97875 7.17125 -2 8 C-2.99 8.66 -3.98 9.32 -5 10 C-7 8 -7 8 -7.1953125 6.0546875 C-7.13020833 4.03645833 -7.06510417 2.01822917 -7 0 C-3.86650268 -1.04449911 -3.01031744 -0.93423645 0 0 Z " fill="#0C1C40" transform="translate(124,127)"/>
<path d="M0 0 C1.32 0.33 2.64 0.66 4 1 C3.1875 3.4375 3.1875 3.4375 2 6 C1.01 6.33 0.02 6.66 -1 7 C-1.33 7.99 -1.66 8.98 -2 10 C-3.98 10 -5.96 10 -8 10 C-6.1875 7.5 -6.1875 7.5 -4 5 C-3.01 5 -2.02 5 -1 5 C-0.67 3.35 -0.34 1.7 0 0 Z " fill="#1E435E" transform="translate(91,70)"/>
<path d="M0 0 C0.7425 0.639375 1.485 1.27875 2.25 1.9375 C4.81530059 3.86147544 6.03325711 4.28388965 9 5 C9.99 6.485 9.99 6.485 11 8 C6.545 8.495 6.545 8.495 2 9 C1.67 7.68 1.34 6.36 1 5 C0.34 4.67 -0.32 4.34 -1 4 C-0.34 4 0.32 4 1 4 C0.67 2.68 0.34 1.36 0 0 Z " fill="#0A1B33" transform="translate(35,110)"/>
<path d="M0 0 C2.31 0.33 4.62 0.66 7 1 C6.67 2.32 6.34 3.64 6 5 C5.34 4.67 4.68 4.34 4 4 C3.67 5.65 3.34 7.3 3 9 C1.68 8.34 0.36 7.68 -1 7 C-0.7525 6.1028125 -0.7525 6.1028125 -0.5 5.1875 C0.1114124 2.88655664 0.1114124 2.88655664 0 0 Z " fill="#192B3A" transform="translate(70,72)"/>
<path d="M0 0 C12.21 0 24.42 0 37 0 C37 0.33 37 0.66 37 1 C24.79 1 12.58 1 0 1 C0 0.67 0 0.34 0 0 Z " fill="#242C33" transform="translate(154,129)"/>
<path d="M0 0 C11.88 0 23.76 0 36 0 C35.67 0.66 35.34 1.32 35 2 C23.45 1.67 11.9 1.34 0 1 C0 0.67 0 0.34 0 0 Z " fill="#252B30" transform="translate(11,129)"/>
<path d="M0 0 C0 1.32 0 2.64 0 4 C-1.32 4 -2.64 4 -4 4 C-4.33 4.66 -4.66 5.32 -5 6 C-8 2.375 -8 2.375 -8 -1 C-4.59745511 -2.2151946 -3.06748874 -1.86240388 0 0 Z " fill="#184164" transform="translate(115,63)"/>
<path d="M0 0 C1.625 1 1.625 1 3 3 C2.65009645 5.8158905 1.84980278 8.2716858 1 11 C-0.32 11 -1.64 11 -3 11 C-3 9.02 -3 7.04 -3 5 C-2.34 4.67 -1.68 4.34 -1 4 C-0.34786708 1.97536745 -0.34786708 1.97536745 0 0 Z " fill="#0F233D" transform="translate(12,108)"/>
<path d="M0 0 C0.66 0.33 1.32 0.66 2 1 C2 1.99 2 2.98 2 4 C2.5775 3.505 3.155 3.01 3.75 2.5 C6 1 6 1 10 1 C10 2.32 10 3.64 10 5 C6.37 5 2.74 5 -1 5 C-0.67 3.35 -0.34 1.7 0 0 Z " fill="#0E233E" transform="translate(135,114)"/>
<path d="M0 0 C0.66 0 1.32 0 2 0 C2.19532961 1.7699868 2.38098882 3.54104279 2.5625 5.3125 C2.66691406 6.29863281 2.77132812 7.28476563 2.87890625 8.30078125 C3 11 3 11 2 14 C1.34 14 0.68 14 0 14 C0 9.38 0 4.76 0 0 Z " fill="#041E43" transform="translate(67,103)"/>
<path d="M0 0 C1.3921875 0.3403125 1.3921875 0.3403125 2.8125 0.6875 C2.8125 2.0075 2.8125 3.3275 2.8125 4.6875 C0.5025 5.0175 -1.8075 5.3475 -4.1875 5.6875 C-4.8475 4.6975 -5.5075 3.7075 -6.1875 2.6875 C-4.14987265 -0.14253799 -3.59070275 -0.35202968 0 0 Z " fill="#17384F" transform="translate(60.1875,65.3125)"/>
<path d="M0 0 C0.78375 0.04125 1.5675 0.0825 2.375 0.125 C2.705 1.775 3.035 3.425 3.375 5.125 C1.70833333 5.125 0.04166667 5.125 -1.625 5.125 C-1.625 5.785 -1.625 6.445 -1.625 7.125 C-2.285 7.125 -2.945 7.125 -3.625 7.125 C-4.25 4.75 -4.25 4.75 -4.625 2.125 C-2.625 0.125 -2.625 0.125 0 0 Z " fill="#142843" transform="translate(68.625,123.875)"/>
<path d="M0 0 C0.5625 1.9375 0.5625 1.9375 1 4 C0 5 0 5 -2.5 5.125 C-5 5 -5 5 -6 4 C-6.99 4.495 -6.99 4.495 -8 5 C-8 4.01 -8 3.02 -8 2 C-4.77208445 -0.1519437 -3.71599191 -0.20086443 0 0 Z " fill="#0D3556" transform="translate(100,81)"/>
<path d="M0 0 C0.598125 0.495 1.19625 0.99 1.8125 1.5 C3.97029994 3.28276418 3.97029994 3.28276418 7 3 C5.35 4.65 3.7 6.3 2 8 C0.68 7.34 -0.64 6.68 -2 6 C-1.34 4.02 -0.68 2.04 0 0 Z " fill="#1F4364" transform="translate(106,67)"/>
<path d="M0 0 C0.928125 0.165 1.85625 0.33 2.8125 0.5 C5.95621353 1.07748388 5.95621353 1.07748388 9 1 C9 1.66 9 2.32 9 3 C8.01 3 7.02 3 6 3 C6.33 3.99 6.66 4.98 7 6 C3.61976483 6 1.16531063 5.12544378 -2 4 C-1.34 2.68 -0.68 1.36 0 0 Z " fill="#23394F" transform="translate(114,49)"/>
<path d="M0 0 C0.66 0.33 1.32 0.66 2 1 C2.40729228 3.32156597 2.74438677 5.6568787 3 8 C1.35 8.33 -0.3 8.66 -2 9 C-2 7.02 -2 5.04 -2 3 C-1.34 3 -0.68 3 0 3 C0 2.01 0 1.02 0 0 Z " fill="#0C2139" transform="translate(148,110)"/>
<path d="M0 0 C0.66 0.33 1.32 0.66 2 1 C1.979375 1.763125 1.95875 2.52625 1.9375 3.3125 C1.87057159 6.10185786 1.87057159 6.10185786 3 9 C2.34 9 1.68 9 1 9 C-0.62514468 10.45833358 -0.62514468 10.45833358 -2 12 C-2.05395478 10.37536158 -2.09277195 8.75021459 -2.125 7.125 C-2.14820313 6.22007813 -2.17140625 5.31515625 -2.1953125 4.3828125 C-2 2 -2 2 0 0 Z " fill="#06192F" transform="translate(181,104)"/>
<path d="M0 0 C0.33 0.99 0.66 1.98 1 3 C0.34 3.66 -0.32 4.32 -1 5 C-1.16687448 7.58354218 -1.16687448 7.58354218 -1 10 C-1.99 10.33 -2.98 10.66 -4 11 C-4 10.01 -4 9.02 -4 8 C-4.66 8 -5.32 8 -6 8 C-5.67 6.35 -5.34 4.7 -5 3 C-3.35 2.67 -1.7 2.34 0 2 C0 1.34 0 0.68 0 0 Z " fill="#204563" transform="translate(102,62)"/>
<path d="M0 0 C0.66 0.33 1.32 0.66 2 1 C1.67 2.65 1.34 4.3 1 6 C-1.64 6 -4.28 6 -7 6 C-7 5.01 -7 4.02 -7 3 C-5.02 3.495 -5.02 3.495 -3 4 C-2.67 3.01 -2.34 2.02 -2 1 C-1.67 1.33 -1.34 1.66 -1 2 C-0.67 1.34 -0.34 0.68 0 0 Z " fill="#0F1C36" transform="translate(61,130)"/>
<path d="M0 0 C6.36363636 -0.48951049 6.36363636 -0.48951049 9.4375 1.875 C11 4 11 4 11 6 C10.01 5.67 9.02 5.34 8 5 C8 4.01 8 3.02 8 2 C5.69 2 3.38 2 1 2 C0.67 2.99 0.34 3.98 0 5 C-1.32 4.67 -2.64 4.34 -4 4 C-3.34 4 -2.68 4 -2 4 C-1.34 2.68 -0.68 1.36 0 0 Z " fill="#0C2138" transform="translate(39,102)"/>
<path d="M0 0 C0.66 0 1.32 0 2 0 C1.67 2.64 1.34 5.28 1 8 C1.66 8 2.32 8 3 8 C3 8.99 3 9.98 3 11 C1.125 10.875 1.125 10.875 -1 10 C-2.25 6.9375 -2.25 6.9375 -3 4 C-2.34 4 -1.68 4 -1 4 C-0.67 2.68 -0.34 1.36 0 0 Z " fill="#142E4C" transform="translate(140,64)"/>
<path d="M0 0 C0.66 0 1.32 0 2 0 C2 0.99 2 1.98 2 3 C3.65 2.67 5.3 2.34 7 2 C6.34 3.32 5.68 4.64 5 6 C4.34 5.67 3.68 5.34 3 5 C3.33 6.32 3.66 7.64 4 9 C3.34 9 2.68 9 2 9 C2 7.68 2 6.36 2 5 C1.01 4.67 0.02 4.34 -1 4 C-0.67 2.68 -0.34 1.36 0 0 Z " fill="#2E4D66" transform="translate(91,58)"/>
<path d="M0 0 C1.32 0.33 2.64 0.66 4 1 C3.25 5.75 3.25 5.75 1 8 C0.01 7.67 -0.98 7.34 -2 7 C-1.34 4.69 -0.68 2.38 0 0 Z " fill="#062449" transform="translate(102,106)"/>
<path d="M0 0 C1.32 0 2.64 0 4 0 C4 1.65 4 3.3 4 5 C3.01 5 2.02 5 1 5 C0.34 6.32 -0.32 7.64 -1 9 C-2.0326802 6.21176345 -2.04509293 5.1322726 -1.0625 2.25 C-0.711875 1.5075 -0.36125 0.765 0 0 Z " fill="#061628" transform="translate(102,102)"/>
<path d="M0 0 C0.66 0 1.32 0 2 0 C2.84098656 4.01804691 3.05404945 7.01803543 2 11 C1.34 10.67 0.68 10.34 0 10 C-0.44921875 7.96875 -0.44921875 7.96875 -0.6875 5.5 C-0.77386719 4.6853125 -0.86023438 3.870625 -0.94921875 3.03125 C-0.96597656 2.3609375 -0.98273438 1.690625 -1 1 C-0.67 0.67 -0.34 0.34 0 0 Z " fill="#121A28" transform="translate(125,140)"/>
<path d="M0 0 C0.66 0.33 1.32 0.66 2 1 C2.6328125 3.28515625 2.6328125 3.28515625 3.125 6.0625 C3.29257813 6.98160156 3.46015625 7.90070313 3.6328125 8.84765625 C3.75398438 9.55792969 3.87515625 10.26820313 4 11 C1 10 1 10 -1 8 C-1.75 5 -1.75 5 -2 2 C-1.34 1.34 -0.68 0.68 0 0 Z " fill="#172A42" transform="translate(98,123)"/>
<path d="M0 0 C0.99 0.33 1.98 0.66 3 1 C2.67 1.99 2.34 2.98 2 4 C0.67511887 4.36548445 -0.66018514 4.6937566 -2 5 C-3.34275169 5.98731742 -4.67732273 6.98594743 -6 8 C-6.66 8 -7.32 8 -8 8 C-6.49860488 3.79609368 -3.82724957 2.10889262 0 0 Z " fill="#1C4467" transform="translate(96,78)"/>
<path d="M0 0 C-0.33 0.598125 -0.66 1.19625 -1 1.8125 C-2.20787988 4.05386471 -2.20787988 4.05386471 -2 7 C-3.98 7 -5.96 7 -8 7 C-6.53112033 2.34854772 -6.53112033 2.34854772 -4 0.6875 C-2 0 -2 0 0 0 Z " fill="#183953" transform="translate(87,74)"/>
<path d="M0 0 C1.98 0 3.96 0 6 0 C5.67 1.32 5.34 2.64 5 4 C3.68 3.34 2.36 2.68 1 2 C1.66 3.65 2.32 5.3 3 7 C1.35 7.33 -0.3 7.66 -2 8 C-1.34 7.67 -0.68 7.34 0 7 C0 4.69 0 2.38 0 0 Z " fill="#162A43" transform="translate(131,128)"/>
<path d="M0 0 C1.32 0 2.64 0 4 0 C4 1.98 4 3.96 4 6 C2.35 6 0.7 6 -1 6 C-0.67 4.02 -0.34 2.04 0 0 Z " fill="#13253B" transform="translate(103,124)"/>
<path d="M0 0 C2.475 0.99 2.475 0.99 5 2 C4.67 3.65 4.34 5.3 4 7 C0.63061102 5.87687034 -0.53174093 4.46825907 -3 2 C-2.01 2 -1.02 2 0 2 C0 1.34 0 0.68 0 0 Z " fill="#051B31" transform="translate(189,110)"/>
<path d="M0 0 C0.66 0 1.32 0 2 0 C2 3.3 2 6.6 2 10 C1.01 10.495 1.01 10.495 0 11 C-0.19406478 9.35492782 -0.38007935 7.70890406 -0.5625 6.0625 C-0.66691406 5.14597656 -0.77132812 4.22945312 -0.87890625 3.28515625 C-0.91886719 2.53105469 -0.95882812 1.77695313 -1 1 C-0.67 0.67 -0.34 0.34 0 0 Z " fill="#1E2535" transform="translate(75,140)"/>
<path d="M0 0 C1.65 0.33 3.3 0.66 5 1 C5 1.99 5 2.98 5 4 C2.36 4 -0.28 4 -3 4 C-3.33 3.34 -3.66 2.68 -4 2 C-2.68 2 -1.36 2 0 2 C0 1.34 0 0.68 0 0 Z " fill="#132436" transform="translate(111,132)"/>
<path d="M0 0 C0.99 0.33 1.98 0.66 3 1 C2.67 2.65 2.34 4.3 2 6 C-0.64 6 -3.28 6 -6 6 C-5.38125 5.566875 -4.7625 5.13375 -4.125 4.6875 C-1.7802755 3.00259517 -1.7802755 3.00259517 0 0 Z " fill="#102744" transform="translate(45,113)"/>
<path d="M0 0 C2 1 4 2 6 3 C5.67 3.99 5.34 4.98 5 6 C2.36 6 -0.28 6 -3 6 C-2.505 5.566875 -2.01 5.13375 -1.5 4.6875 C0.33218192 3.00259517 0.33218192 3.00259517 0 0 Z " fill="#0C264B" transform="translate(59,111)"/>
<path d="M0 0 C0.66 0 1.32 0 2 0 C3.125 5.75 3.125 5.75 2 8 C2.33 8.99 2.66 9.98 3 11 C2.01 11.33 1.02 11.66 0 12 C0 8 0 4 0 0 Z " fill="#0E1D34" transform="translate(118,106)"/>
<path d="M0 0 C2.00720923 0.28674418 4.0085944 0.61866701 6 1 C5.34 2.32 4.68 3.64 4 5 C2.68 5 1.36 5 0 5 C-0.5625 3.0625 -0.5625 3.0625 -1 1 C-0.67 0.67 -0.34 0.34 0 0 Z " fill="#1A3148" transform="translate(69,82)"/>
<path d="M0 0 C1.32 0.33 2.64 0.66 4 1 C4 1.99 4 2.98 4 4 C3.34 3.67 2.68 3.34 2 3 C2 3.66 2 4.32 2 5 C0.68 5.33 -0.64 5.66 -2 6 C-2 4.68 -2 3.36 -2 2 C-1.34 2 -0.68 2 0 2 C0 1.34 0 0.68 0 0 Z " fill="#15293E" transform="translate(88,124)"/>
<path d="M0 0 C1.98 0.99 1.98 0.99 4 2 C4.75 5.125 4.75 5.125 5 8 C4.01 8.33 3.02 8.66 2 9 C1.34 6.03 0.68 3.06 0 0 Z " fill="#092033" transform="translate(71,124)"/>
<path d="M0 0 C0.99 0 1.98 0 3 0 C3 0.66 3 1.32 3 2 C5.97 2.495 5.97 2.495 9 3 C7.1875 4.5625 7.1875 4.5625 5 6 C4.01 5.67 3.02 5.34 2 5 C2 5.66 2 6.32 2 7 C1.34 6.67 0.68 6.34 0 6 C0 4.02 0 2.04 0 0 Z " fill="#031826" transform="translate(132,103)"/>
<path d="M0 0 C0.66 0 1.32 0 2 0 C2.33 2.97 2.66 5.94 3 9 C1.35 9.66 -0.3 10.32 -2 11 C-1.505 10.1028125 -1.505 10.1028125 -1 9.1875 C0.20787988 6.94613529 0.20787988 6.94613529 0 4 C-0.99 4.495 -0.99 4.495 -2 5 C-1.34 3.35 -0.68 1.7 0 0 Z " fill="#275566" transform="translate(81,62)"/>
<path d="M0 0 C3 2 3 2 3.6875 5.125 C3.790625 6.07375 3.89375 7.0225 4 8 C1 7 1 7 0 6 C-0.99 6.495 -0.99 6.495 -2 7 C-1.42415568 4.61435923 -0.77772405 2.33317216 0 0 Z " fill="#192F45" transform="translate(61,126)"/>
<path d="M0 0 C0.99 0.33 1.98 0.66 3 1 C3 1.66 3 2.32 3 3 C3.66 3.33 4.32 3.66 5 4 C4.01 4 3.02 4 2 4 C1.67 4.66 1.34 5.32 1 6 C0.01 5.34 -0.98 4.68 -2 4 C-2 3.01 -2 2.02 -2 1 C-1.34 0.67 -0.68 0.34 0 0 Z " fill="#0E3452" transform="translate(128,80)"/>
<path d="M0 0 C3.73639216 1.24546405 4.18756513 2.63404953 6 6 C5.01 6.495 5.01 6.495 4 7 C3.67 6.34 3.34 5.68 3 5 C1.68 5 0.36 5 -1 5 C-1.33 5.99 -1.66 6.98 -2 8 C-2 4 -2 4 0 2 C0 1.34 0 0.68 0 0 Z " fill="#1A425E" transform="translate(127,76)"/>
<path d="M0 0 C0.66 0 1.32 0 2 0 C2 0.66 2 1.32 2 2 C2.99 2.33 3.98 2.66 5 3 C5 3.99 5 4.98 5 6 C3.35 6 1.7 6 0 6 C-1.24546405 3.50907189 -0.7767578 2.58919267 0 0 Z " fill="#1C3443" transform="translate(50,142)"/>
<path d="M0 0 C0.66 0.33 1.32 0.66 2 1 C2.625 4.0625 2.625 4.0625 3 7 C1.35 6.67 -0.3 6.34 -2 6 C-2 5.34 -2 4.68 -2 4 C-1.34 4 -0.68 4 0 4 C0 2.68 0 1.36 0 0 Z " fill="#0F243D" transform="translate(159,112)"/>
<path d="M0 0 C0.4125 0.474375 0.825 0.94875 1.25 1.4375 C3.182185 3.16266518 4.48192275 3.56584875 7 4 C7 4.66 7 5.32 7 6 C6.34 6 5.68 6 5 6 C4.67 6.66 4.34 7.32 4 8 C1.44971017 6.72485508 1.06918289 5.59658703 0 3 C0 2.01 0 1.02 0 0 Z " fill="#0E2F43" transform="translate(36,107)"/>
<path d="M0 0 C-1.2065625 0.4021875 -1.2065625 0.4021875 -2.4375 0.8125 C-3.283125 1.204375 -4.12875 1.59625 -5 2 C-5.33 2.99 -5.66 3.98 -6 5 C-6.33 4.01 -6.66 3.02 -7 2 C-7.99 1.67 -8.98 1.34 -10 1 C-3.375 -1.125 -3.375 -1.125 0 0 Z " fill="#071D32" transform="translate(64,109)"/>
<path d="M0 0 C2.97 0 5.94 0 9 0 C9 0.66 9 1.32 9 2 C5.7 2.33 2.4 2.66 -1 3 C-0.67 2.01 -0.34 1.02 0 0 Z " fill="#04223F" transform="translate(135,103)"/>
<path d="M0 0 C2.64 0.99 5.28 1.98 8 3 C3.80104745 4.04973814 1.20594226 3.72795155 -3 3 C-2.01 2.01 -1.02 1.02 0 0 Z " fill="#1A3648" transform="translate(131,52)"/>
<path d="M0 0 C0.33 0 0.66 0 1 0 C1 2.97 1 5.94 1 9 C-0.32 9 -1.64 9 -3 9 C-3.66 7.68 -4.32 6.36 -5 5 C-3.68 5.33 -2.36 5.66 -1 6 C-0.67 4.02 -0.34 2.04 0 0 Z " fill="#081E36" transform="translate(137,125)"/>
<path d="M0 0 C2.0625 0.4375 2.0625 0.4375 4 1 C3.67 2.65 3.34 4.3 3 6 C2.01 5.67 1.02 5.34 0 5 C-0.75 3 -0.75 3 -1 1 C-0.67 0.67 -0.34 0.34 0 0 Z " fill="#072149" transform="translate(120,112)"/>
<path d="M0 0 C1.32 0 2.64 0 4 0 C4 1.65 4 3.3 4 5 C2.68 5 1.36 5 0 5 C0 3.35 0 1.7 0 0 Z " fill="#042247" transform="translate(92,103)"/>
<path d="M0 0 C1.37562854 1.28965176 2.70766393 2.62689293 4 4 C4 4.66 4 5.32 4 6 C2.02 5.34 0.04 4.68 -2 4 C-1 1 -1 1 0 0 Z " fill="#38556A" transform="translate(98,54)"/>
<path d="M0 0 C0.66 0 1.32 0 2 0 C2.625 1.8125 2.625 1.8125 3 4 C2.01 5.485 2.01 5.485 1 7 C0.01 7 -0.98 7 -2 7 C-2.33 6.01 -2.66 5.02 -3 4 C-2.34 3.67 -1.68 3.34 -1 3 C-0.67 2.01 -0.34 1.02 0 0 Z " fill="#07151B" transform="translate(69,142)"/>
<path d="M0 0 C0.66 0.33 1.32 0.66 2 1 C2.625 3.0625 2.625 3.0625 3 5 C1.35 4.67 -0.3 4.34 -2 4 C-2.33 3.01 -2.66 2.02 -3 1 C-2.01 0.67 -1.02 0.34 0 0 Z " fill="#0B2039" transform="translate(175,114)"/>
<path d="M0 0 C2.97 0.495 2.97 0.495 6 1 C6 1.66 6 2.32 6 3 C4.68 3 3.36 3 2 3 C2 3.99 2 4.98 2 6 C0.68 4.68 -0.64 3.36 -2 2 C-1.34 2 -0.68 2 0 2 C0 1.34 0 0.68 0 0 Z " fill="#2F4C69" transform="translate(86,66)"/>
<path d="M0 0 C0.98120464 3.05263664 0.98120464 4.94736336 0 8 C-0.66 8 -1.32 8 -2 8 C-2.33 6.02 -2.66 4.04 -3 2 C-2.01 1.34 -1.02 0.68 0 0 Z " fill="#143F61" transform="translate(121,58)"/>
<path d="M0 0 C1.98 0 3.96 0 6 0 C6 1.32 6 2.64 6 4 C4.02 4 2.04 4 0 4 C0 2.68 0 1.36 0 0 Z " fill="#142944" transform="translate(123,48)"/>
<path d="M0 0 C2.97 0.495 2.97 0.495 6 1 C6.33 1.99 6.66 2.98 7 4 C6.01 3.67 5.02 3.34 4 3 C3.34 3.66 2.68 4.32 2 5 C0 1.125 0 1.125 0 0 Z " fill="#182330" transform="translate(43,144)"/>
<path d="M0 0 C0.33 0 0.66 0 1 0 C1.268125 0.94875 1.53625 1.8975 1.8125 2.875 C2.74986588 6.25267273 2.74986588 6.25267273 6 8 C3.625 8.125 3.625 8.125 1 8 C0.34 7.34 -0.32 6.68 -1 6 C-0.625 2.875 -0.625 2.875 0 0 Z " fill="#10213B" transform="translate(98,128)"/>
<path d="M0 0 C1.98 0.66 3.96 1.32 6 2 C6 2.66 6 3.32 6 4 C4.02 4 2.04 4 0 4 C0 2.68 0 1.36 0 0 Z " fill="#0B1C2F" transform="translate(9,101)"/>
<path d="M0 0 C3.5 0.3125 3.5 0.3125 7 1 C7.33 1.66 7.66 2.32 8 3 C5.03 2.505 5.03 2.505 2 2 C2 2.66 2 3.32 2 4 C1.34 4 0.68 4 0 4 C-0.33 3.01 -0.66 2.02 -1 1 C-0.67 0.67 -0.34 0.34 0 0 Z " fill="#234A6B" transform="translate(130,65)"/>
<path d="M0 0 C2.97 0.495 2.97 0.495 6 1 C5.67 1.66 5.34 2.32 5 3 C3.02 3 1.04 3 -1 3 C-0.67 2.01 -0.34 1.02 0 0 Z " fill="#23354D" transform="translate(85,144)"/>
<path d="M0 0 C0.33 0.66 0.66 1.32 1 2 C1.99 2.33 2.98 2.66 4 3 C4 3.33 4 3.66 4 4 C1.69 4 -0.62 4 -3 4 C-2.67 3.01 -2.34 2.02 -2 1 C-1.34 0.67 -0.68 0.34 0 0 Z " fill="#032045" transform="translate(139,107)"/>
<path d="M0 0 C1.65 0 3.3 0 5 0 C4.34 1.98 3.68 3.96 3 6 C1.5 4.6875 1.5 4.6875 0 3 C0 2.01 0 1.02 0 0 Z " fill="#0F1E3B" transform="translate(29,102)"/>
<path d="M0 0 C0.66 0 1.32 0 2 0 C2 1.98 2 3.96 2 6 C0.02 6.99 0.02 6.99 -2 8 C-1.34 5.36 -0.68 2.72 0 0 Z " fill="#151F2A" transform="translate(67,74)"/>
<path d="M0 0 C1.32 0.66 2.64 1.32 4 2 C3.01 2.495 3.01 2.495 2 3 C1.67 3.99 1.34 4.98 1 6 C-0.32 5.34 -1.64 4.68 -3 4 C-2.01 2.68 -1.02 1.36 0 0 Z " fill="#1B2F3B" transform="translate(57,65)"/>
<path d="M0 0 C0.99 0 1.98 0 3 0 C3 0.99 3 1.98 3 3 C1.68 2.67 0.36 2.34 -1 2 C-0.67 1.34 -0.34 0.68 0 0 Z " fill="#283135" transform="translate(79,54)"/>
<path d="M0 0 C0.66 0 1.32 0 2 0 C1.67 0.99 1.34 1.98 1 3 C0.34 2.34 -0.32 1.68 -1 1 C-0.67 0.67 -0.34 0.34 0 0 Z " fill="#252A31" transform="translate(63,76)"/>
<path d="" fill="#000020" transform="translate(0,0)"/>
<path d="" fill="#203939" transform="translate(0,0)"/>
<path d="" fill="#26292B" transform="translate(0,0)"/>
<path d="" fill="#000000" transform="translate(0,0)"/>
<path d="" fill="#2A2A2A" transform="translate(0,0)"/>
<path d="" fill="#000000" transform="translate(0,0)"/>
<path d="" fill="#000000" transform="translate(0,0)"/>
<path d="" fill="#000000" transform="translate(0,0)"/>
<path d="" fill="#003333" transform="translate(0,0)"/>
<path d="" fill="#000000" transform="translate(0,0)"/>
<path d="" fill="#000000" transform="translate(0,0)"/>
<path d="" fill="#000000" transform="translate(0,0)"/>
<path d="" fill="#000000" transform="translate(0,0)"/>
<path d="" fill="#000000" transform="translate(0,0)"/>
<path d="" fill="#000000" transform="translate(0,0)"/>
<path d="" fill="#000000" transform="translate(0,0)"/>
<path d="" fill="#000000" transform="translate(0,0)"/>
<path d="" fill="#000000" transform="translate(0,0)"/>
<path d="" fill="#202040" transform="translate(0,0)"/>
<path d="" fill="#000000" transform="translate(0,0)"/>
<path d="" fill="#000000" transform="translate(0,0)"/>
<path d="" fill="#000055" transform="translate(0,0)"/>
<path d="" fill="#000000" transform="translate(0,0)"/>
<path d="" fill="#000080" transform="translate(0,0)"/>
<path d="" fill="#004040" transform="translate(0,0)"/>
<path d="" fill="#000000" transform="translate(0,0)"/>
<path d="" fill="#000000" transform="translate(0,0)"/>
<path d="" fill="#000000" transform="translate(0,0)"/>
<path d="" fill="#000000" transform="translate(0,0)"/>
<path d="" fill="#000000" transform="translate(0,0)"/>
<path d="" fill="#000000" transform="translate(0,0)"/>
<path d="" fill="#000000" transform="translate(0,0)"/>
<path d="" fill="#000055" transform="translate(0,0)"/>
<path d="" fill="#000000" transform="translate(0,0)"/>
<path d="" fill="#000000" transform="translate(0,0)"/>
<path d="" fill="#003333" transform="translate(0,0)"/>
<path d="" fill="#000000" transform="translate(0,0)"/>
<path d="" fill="#000000" transform="translate(0,0)"/>
<path d="" fill="#000000" transform="translate(0,0)"/>
<path d="" fill="#000000" transform="translate(0,0)"/>
<path d="" fill="#000000" transform="translate(0,0)"/>
<path d="" fill="#000000" transform="translate(0,0)"/>
<path d="" fill="#333333" transform="translate(0,0)"/>
<path d="" fill="#000055" transform="translate(0,0)"/>
<path d="" fill="#2A2A2A" transform="translate(0,0)"/>
<path d="" fill="#000000" transform="translate(0,0)"/>
<path d="" fill="#005555" transform="translate(0,0)"/>
<path d="" fill="#000000" transform="translate(0,0)"/>
<path d="" fill="#000000" transform="translate(0,0)"/>
<path d="" fill="#000000" transform="translate(0,0)"/>
<path d="" fill="#000000" transform="translate(0,0)"/>
<path d="" fill="#000000" transform="translate(0,0)"/>
<path d="" fill="#2A2A2A" transform="translate(0,0)"/>
<path d="" fill="#555555" transform="translate(0,0)"/>
<path d="" fill="#555555" transform="translate(0,0)"/>
</svg>
